<svg xmlns="http://www.w3.org/2000/svg" xmlns:xlink="http://www.w3.org/1999/xlink" width="400" height="400" viewBox="0 0 400 400">
  <defs>
    <clipPath id="clip-Custom_Size_1">
      <rect width="400" height="400"/>
    </clipPath>
  </defs>
  <g id="Custom_Size_1" data-name="Custom Size – 1" clip-path="url(#clip-Custom_Size_1)">
    <g id="_-Sharable-URLs" data-name="🔗-Sharable-URLs" transform="translate(50 184)">
      <g id="Flight-URL-_-Desktop" data-name="Flight-URL-–-Desktop">
        <g id="Group-2">
          <path id="Logo" d="M246.19,22a7.738,7.738,0,0,1,5.58,2.325,8.287,8.287,0,0,1,2.247,4.719l.036.372.034.743h-.027V46.582l0,.14a8,8,0,0,1-2.3,5.517,7.779,7.779,0,0,1-10.574.528l-.3-.262-.278-.27L217.336,28.552a2.039,2.039,0,0,0-2.905,0,2.1,2.1,0,0,0-.567,1.06l-.029.2-.011.226V46.574a2.077,2.077,0,0,0,.6,1.474,2.025,2.025,0,0,0,2.588.277l.158-.119.166-.153L222.7,42.6a2.877,2.877,0,0,1,4.116,0,2.994,2.994,0,0,1,.319,3.8l-.152.2-.168.186-5.366,5.441a7.765,7.765,0,0,1-11.148-.043,7.92,7.92,0,0,1-2.255-4.77l-.034-.4-.016-.4V29.831a7.906,7.906,0,0,1,2.31-5.465,7.793,7.793,0,0,1,10.57-.529l.3.261.278.269,23.283,23.685a2.032,2.032,0,0,0,2.912,0A2.1,2.1,0,0,0,248.217,47l.029-.195.011-.224V30.02a2.09,2.09,0,0,0-.607-1.47,2.059,2.059,0,0,0-2.513-.318l-.178.122-.15.126L239.366,34a2.878,2.878,0,0,1-4.116,0,3,3,0,0,1-.319-3.8l.152-.2.168-.186,5.365-5.454A7.771,7.771,0,0,1,246.19,22Zm177.582,3.018a2.68,2.68,0,0,1,1.8,2.9l-.038.227-.056.219L419.028,49.81a2.626,2.626,0,0,1-1.946,1.824l-.216.038-.224.018-.092,0a2.579,2.579,0,0,1-2.208-1.274l-.111-.2L414.137,50l-7.5-19.573a2.7,2.7,0,0,1,1.458-3.468,2.556,2.556,0,0,1,3.169,1.1l.109.2.089.207,4.788,12.5,4.27-14.187A2.581,2.581,0,0,1,423.772,25.018ZM445.1,24.9a2.6,2.6,0,0,1,2.113,1.054l.128.19.112.206,10.474,21.481a2.686,2.686,0,0,1-1.185,3.576,2.585,2.585,0,0,1-1.166.285,2.611,2.611,0,0,1-2.11-1.073l-.13-.193-.115-.211-2.532-5.179h-12.3l-2.911,5.3a2.6,2.6,0,0,1-3.165,1.207l-.207-.085-.2-.1a2.694,2.694,0,0,1-1.2-3.208l.082-.214.106-.215,11.784-21.478a2.562,2.562,0,0,1,1.818-1.292l.237-.032.239-.011Zm35.923.4a2.645,2.645,0,0,1,1.07,3.287l-.1.211-.115.2-7.426,11.571v8.451a2.676,2.676,0,0,1-2.274,2.641l-.218.025-.212.008a2.689,2.689,0,0,1-2.667-2.241l-.027-.218-.009-.215v-7.77l-.066-.075-8.2-12.123a2.645,2.645,0,0,1,.776-3.715,2.761,2.761,0,0,1,3.453.383l.163.181.145.194,6.154,9.112,5.806-9.058A2.752,2.752,0,0,1,481.021,25.3Zm-187.931.533.155.2.121.187,9.949,16.907a2.665,2.665,0,0,1-.973,3.664,2.705,2.705,0,0,1-3.39-.572l-.151-.19-.132-.2-6.25-10.619-2.532,14.273a2.684,2.684,0,0,1-2.2,2.172l-.222.028-.227.009a2.728,2.728,0,0,1-.466-.04A2.68,2.68,0,0,1,284.549,49l.01-.219.03-.225,3.806-21.447a2.7,2.7,0,0,1,4.7-1.273Zm35.048-.937a2.536,2.536,0,0,1,2.444,2.221l.028.228.009.226V49.018a2.576,2.576,0,0,1-2.481,2.674,2.536,2.536,0,0,1-2.444-2.221l-.028-.228-.009-.226V27.571A2.576,2.576,0,0,1,328.138,24.9Zm14.338,0a2.646,2.646,0,0,1,2.605,2.231l.028.217.01.227V46.379h11.191a2.653,2.653,0,0,1,2.628,2.232l.025.215.008.209a2.651,2.651,0,0,1-2.22,2.619l-.215.028-.225.01h-13.83a2.646,2.646,0,0,1-2.609-2.226l-.028-.217-.01-.227V27.572A2.652,2.652,0,0,1,342.476,24.9Zm40.759,0a2.662,2.662,0,0,1,.442,5.288l-.216.028-.226.01H370.649v5.41h10.271a2.66,2.66,0,0,1,2.636,2.238l.025.215.008.209a2.658,2.658,0,0,1-2.227,2.625l-.216.028-.226.01H370.649v5.41h12.586a2.66,2.66,0,0,1,2.636,2.238l.025.215.008.209a2.658,2.658,0,0,1-2.227,2.625l-.216.028-.226.01H368.024a2.677,2.677,0,0,1-2.637-2.231l-.028-.217-.01-.228V27.5a2.6,2.6,0,0,1,2.232-2.572l.217-.027.225-.009ZM397.1,26.359l.092.209.072.213,4.171,14.164.821-2.185a2.524,2.524,0,0,1,2.9-1.636l.211.058.2.073a2.7,2.7,0,0,1,1.555,3.016l-.052.222-.074.227L403.513,50a2.551,2.551,0,0,1-2.368,1.695l-.1,0a2.541,2.541,0,0,1-2.174-1.466l-.09-.2-.072-.211L392.4,28.362a2.7,2.7,0,0,1,1.674-3.343A2.5,2.5,0,0,1,397.1,26.359ZM503.4,24.9a2.659,2.659,0,0,1,.439,5.29l-.221.027-.218.009h-7.979A2.7,2.7,0,0,0,495,35.6l.219.025.207.008h4.223a8.026,8.026,0,0,1,.646,16.035l-.326.019-.32.006H489.98a2.659,2.659,0,0,1-.439-5.29l.221-.027.218-.009h9.669a2.7,2.7,0,0,0,.426-5.378l-.219-.025-.207-.008h-4.223a8.026,8.026,0,0,1-.646-16.035l.326-.019.32-.006Zm-191.7.041a2.729,2.729,0,0,1,2.105,1.736l.069.213.05.218,3.888,21.447a2.681,2.681,0,0,1-2.234,3.1,2.831,2.831,0,0,1-.474.04,2.747,2.747,0,0,1-2.581-1.769l-.071-.217-.051-.223-2.593-14.3-1.722,2.854a2.785,2.785,0,0,1-3.322,1.153l-.214-.087L304.347,39a2.643,2.643,0,0,1-1.194-3.255l.092-.213.11-.2,5.5-9.111A2.776,2.776,0,0,1,311.707,24.938ZM444.9,33.193l-3.574,6.518h6.749Z" transform="translate(-208 -22)" fill="#00a1f2"/>
        </g>
      </g>
    </g>
  </g>
</svg>
