<svg xmlns="http://www.w3.org/2000/svg" xmlns:xlink="http://www.w3.org/1999/xlink" width="400" height="400" viewBox="0 0 400 400">
  <defs>
    <clipPath id="clip-Custom_Size_8">
      <rect width="400" height="400"/>
    </clipPath>
  </defs>
  <g id="Custom_Size_8" data-name="Custom Size – 8" clip-path="url(#clip-Custom_Size_8)">
    <path id="Path_1" data-name="Path 1" d="M180.723,407.523a12.7,12.7,0,0,1-1.815,3.328c-.778.864-2.031,1.124-3.976,1.124a9.515,9.515,0,0,1-3.371-.389c-.648-.389-.821-1.124-.821-2.766v-6.008h2.636c2.939,0,3.285.13,3.76,2.68h1.383V398.4h-1.383c-.432,2.42-.778,2.636-3.8,2.636h-2.593v-7.347c0-1.124.086-1.167,1.34-1.167H174.2c2.031,0,2.982.259,3.5.908a8.185,8.185,0,0,1,1.253,2.939l1.383-.216c-.13-2.075-.3-4.538-.346-5.186H163.694v1.34c2.593.216,2.939.389,2.939,3.328v13.269c0,2.853-.3,3.112-3.371,3.285v1.34H180.9c.3-.994.994-4.322,1.21-5.748Zm-19.19-16.553h-8.687v1.34c2.464.086,3.242.605,3.458,2.075a55.477,55.477,0,0,1,.259,5.662v6.829h-.086l-13.614-15.9h-6.137v1.34a3.634,3.634,0,0,1,2.982,1.21c.648.821.735,1.253.735,3.63v7.3a56.313,56.313,0,0,1-.3,5.705c-.173,1.513-1.037,1.988-2.939,2.118v1.3h8.644v-1.3c-2.464-.13-3.2-.692-3.371-2.247a54.808,54.808,0,0,1-.259-5.575v-8h.086l14.392,17.418h1.729v-13.83a45.608,45.608,0,0,1,.259-5.705c.173-1.469.951-1.945,2.9-2.031l-.043-1.34Zm-40.368,11.41v-8.212a2.02,2.02,0,0,1,.3-1.383,2.669,2.669,0,0,1,1.729-.389c2.2,0,4.495,1.3,4.495,4.884a4.974,4.974,0,0,1-1.772,4.149,5.372,5.372,0,0,1-3.5.951ZM135.6,412.623a5.123,5.123,0,0,1-2.291-1.469,26.1,26.1,0,0,1-2.68-3.63c-1.037-1.6-2.377-3.89-2.9-4.927,2.42-1.037,4.322-2.766,4.322-5.748a5.3,5.3,0,0,0-2.377-4.668c-1.383-.908-3.112-1.21-6.051-1.21h-9.465v1.34c2.636.216,2.939.475,2.939,3.285v13.269c0,2.809-.346,3.112-3.069,3.285v1.34h10.157v-1.34c-2.723-.216-3.025-.475-3.025-3.285V403.85h.908a2.481,2.481,0,0,1,2.507,1.383c.994,1.729,2.075,3.76,3.112,5.316,1.469,2.161,2.853,3.069,6.569,3.285.432,0,.821.043,1.124.043Zm-25.284-5.1a11.5,11.5,0,0,1-1.858,3.328c-.778.864-2.031,1.124-3.976,1.124a9.515,9.515,0,0,1-3.371-.389c-.648-.389-.821-1.124-.821-2.766v-6.008h2.636c2.939,0,3.285.13,3.76,2.68h1.383V398.4h-1.383c-.432,2.42-.778,2.636-3.8,2.636H100.29v-7.347c0-1.124.086-1.167,1.383-1.167h2.118c2.075,0,2.982.259,3.5.908a8.185,8.185,0,0,1,1.253,2.939l1.383-.216c-.13-2.075-.3-4.538-.346-5.186H93.289v1.34c2.593.216,2.939.389,2.939,3.328v13.269c0,2.853-.3,3.112-3.371,3.285v1.34H110.49a53.182,53.182,0,0,0,1.21-5.748ZM89.485,407c-1.815,3.63-3.76,5.4-6.829,5.4-4.884,0-8.514-4.149-8.514-10.5,0-5.143,2.939-9.811,8.169-9.811,3.112,0,5.446,1.253,6.526,5.273l1.426-.259c-.216-2.161-.475-3.76-.778-5.662a26.992,26.992,0,0,0-6.353-.951c-8.125,0-13.787,4.841-13.787,12.1,0,5.532,3.89,11.5,12.923,11.5a31.218,31.218,0,0,0,6.613-.951,48.346,48.346,0,0,0,1.988-5.575Zm-21-16.035H59.62v1.34c2.42.13,3.242.691,3.458,1.945a29.823,29.823,0,0,1,.3,5.057V402.6c0,5.748-1.815,9.076-6.137,9.076-3.847,0-5.921-2.939-5.921-8.341v-7.564c0-3.069.3-3.285,2.939-3.5v-1.34H44.191v1.34c2.723.259,3.025.432,3.025,3.5v8.255c0,4.106.994,6.7,3.025,8.212a9.5,9.5,0,0,0,6.008,1.772,8.836,8.836,0,0,0,6.4-2.507c2.031-2.075,2.636-5.057,2.636-8.9v-3.328a30.378,30.378,0,0,1,.259-5.014c.173-1.3,1.037-1.9,2.982-1.988v-1.3ZM43.2,407.351a11.017,11.017,0,0,1-1.858,3.5,4.623,4.623,0,0,1-3.587,1.124,8.692,8.692,0,0,1-2.853-.346c-.692-.3-.821-.994-.821-2.68V395.638c0-2.939.259-3.112,3.069-3.328v-1.34H26.859v1.34c2.766.259,3.112.432,3.112,3.328V408.82c0,2.9-.346,3.112-3.328,3.328v1.34H43.326c.259-.951.994-4.408,1.3-5.835ZM285.92,361.58c-.173-1.988-.346-4.495-.389-5.316H269.238v1.383c2.636.216,2.939.432,2.939,3.414v12.966c0,3.069-.3,3.285-2.982,3.458v1.34H279.74v-1.34c-3.155-.216-3.458-.432-3.458-3.458v-5.575h3.025c3.112,0,3.414.3,3.8,2.723h1.383v-7h-1.383c-.432,2.247-.648,2.55-3.8,2.55h-3.025v-7.65c0-1.124.086-1.21,1.3-1.21H279.7c2.075,0,2.939.259,3.587,1.037a6.7,6.7,0,0,1,1.253,2.939ZM254.975,357.3c4.149,0,7.347,3.976,7.347,10.935,0,6.4-3.025,9.552-6.44,9.552-4.625,0-7.607-4.884-7.607-10.891,0-6.137,3.025-9.595,6.7-9.595Zm.648-1.556a11.6,11.6,0,0,0-12.1,11.885,11.355,11.355,0,0,0,11.713,11.713c6.526,0,11.929-4.538,11.929-12.058a11.259,11.259,0,0,0-11.5-11.54Zm-20.1.519h-8.169v1.34c2.593.3,2.636.692,2.031,2.161-.864,2.075-2.636,5.273-3.717,7.3-1.383-2.507-2.9-5.057-4.149-7.52-.605-1.167-.692-1.6,1.642-1.9v-1.34H213.7v1.34c2.031.259,2.593.605,3.847,2.853,1.988,3.458,3.242,5.662,4.322,7.693a3.456,3.456,0,0,1,.605,1.988v4.063c0,2.9-.3,3.112-3.371,3.328v1.3h10.935v-1.3c-3.155-.216-3.458-.432-3.458-3.328v-4.452a4.133,4.133,0,0,1,.605-2.42c1.253-2.377,2.593-4.668,3.976-6.915,1.3-2.031,1.988-2.593,4.322-2.853l.043-1.34Zm-24.03,5.792c-.173-2.247-.389-5.186-.389-6.656h-.951a2.076,2.076,0,0,1-1.9.864H194.337c-.994,0-1.426-.086-1.945-.864h-.951c-.086,1.815-.259,4.322-.432,6.786h1.383a8.681,8.681,0,0,1,1.3-3.371c.475-.605,1.081-.951,3.89-.951h1.556V374.2c0,2.853-.3,3.112-3.371,3.285v1.34h11.021v-1.34c-3.2-.216-3.544-.475-3.544-3.285V357.82h1.9c2.2,0,2.939.216,3.5.908a7.426,7.426,0,0,1,1.34,3.458Zm-23.252,16.769v-1.34c-2.723-.216-2.982-.432-2.982-3.285V360.932c0-2.9.259-3.112,2.982-3.328v-1.34H178.086v1.34c2.766.259,3.025.432,3.025,3.328V374.2c0,2.9-.3,3.112-3.025,3.285v1.34Zm-14.176-17.2c-.3-2.291-.519-3.8-.648-5.014a16.691,16.691,0,0,0-4.754-.864c-4.841,0-7.78,2.939-7.78,6.613,0,3.5,2.766,5.359,6.008,6.915,2.636,1.34,4.322,2.593,4.322,4.8a3.451,3.451,0,0,1-3.674,3.76c-3.458,0-5.273-3.76-5.878-5.878l-1.34.389a51.815,51.815,0,0,0,.994,5.748,13.565,13.565,0,0,0,1.988.778,12.029,12.029,0,0,0,3.544.519c4.97,0,8.3-3.025,8.3-6.958,0-3.587-2.723-5.4-6.18-7.088-2.939-1.426-4.365-2.593-4.365-4.668a3.359,3.359,0,0,1,3.544-3.458c2.939,0,3.976,2.507,4.668,4.668Zm-29.476,6.051v-8.212a2.02,2.02,0,0,1,.3-1.383,2.6,2.6,0,0,1,1.686-.389c2.2,0,4.495,1.3,4.495,4.884a4.974,4.974,0,0,1-1.772,4.149,5.372,5.372,0,0,1-3.5.951Zm14.436,10.243a5.122,5.122,0,0,1-2.291-1.469,26.093,26.093,0,0,1-2.68-3.63c-1.037-1.6-2.42-3.89-2.939-4.927,2.42-1.037,4.322-2.766,4.322-5.748a5.3,5.3,0,0,0-2.377-4.668c-1.383-.908-3.112-1.21-6.051-1.21h-9.465v1.34c2.636.216,2.939.475,2.939,3.285v13.269c0,2.809-.346,3.112-3.069,3.285v1.34H147.53v-1.34c-2.723-.216-3.025-.475-3.025-3.285v-5.014h.908a2.445,2.445,0,0,1,2.507,1.383c1.037,1.729,2.075,3.76,3.112,5.316,1.513,2.161,2.853,3.069,6.613,3.285.432,0,.821.043,1.124.043Zm-25.673-5.1a11.5,11.5,0,0,1-1.858,3.328c-.778.864-1.988,1.124-3.976,1.124a9.515,9.515,0,0,1-3.371-.389c-.648-.389-.821-1.124-.821-2.766v-6.008h2.636c2.939,0,3.285.13,3.76,2.68h1.383V363.7h-1.383c-.432,2.42-.778,2.636-3.8,2.636h-2.593v-7.3c0-1.124.086-1.167,1.34-1.167h2.118c2.075,0,2.982.259,3.5.908a8.185,8.185,0,0,1,1.253,2.939l1.383-.216c-.13-2.075-.3-4.538-.346-5.186H116.282v1.34c2.593.216,2.9.389,2.9,3.328v13.269c0,2.853-.3,3.112-3.371,3.285v1.34h17.72a53.171,53.171,0,0,0,1.21-5.748Zm-18.671-16.553h-8.255v1.383c2.853.3,2.939.735,2.161,2.939-.864,2.766-2.636,7.434-4.668,12.836h-.086c-1.469-3.8-4.192-10.848-5.23-13.658-.562-1.469-.519-1.815,2.031-2.075v-1.383h-9.9v1.383c2.118.216,2.723.605,3.717,3.112,1.642,4.019,4.841,12.145,7.131,18.455h1.729c2.68-7.131,6.051-15.386,7.045-17.763,1.34-3.2,1.988-3.544,4.322-3.8ZM88.967,378.825v-1.34c-2.723-.216-2.982-.432-2.982-3.285V360.932c0-2.9.259-3.112,2.982-3.328v-1.34H78.81v1.34c2.766.259,3.025.432,3.025,3.328V374.2c0,2.9-.3,3.112-3.025,3.285v1.34ZM76.779,356.264H68.091v1.34c2.464.086,3.242.605,3.458,2.075a55.475,55.475,0,0,1,.259,5.662v6.829h-.086l-13.614-15.9H51.97v1.34a3.635,3.635,0,0,1,2.982,1.21c.692.821.735,1.253.735,3.63v7.3a56.309,56.309,0,0,1-.3,5.705c-.173,1.513-1.037,1.988-2.939,2.118v1.3H61.09v-1.3c-2.464-.13-3.2-.692-3.371-2.247a54.814,54.814,0,0,1-.259-5.575V361.71h.086l14.392,17.418h1.729V365.3a45.609,45.609,0,0,1,.259-5.705c.173-1.469.951-1.945,2.9-2.031l-.043-1.3Zm-25.846,0h-8.86v1.34c2.42.13,3.242.692,3.458,1.945a29.823,29.823,0,0,1,.3,5.057v3.285c0,5.748-1.858,9.076-6.137,9.076-3.847,0-5.921-2.939-5.921-8.341v-7.564c0-3.069.3-3.285,2.939-3.5v-1.34H26.6v1.34c2.723.259,3.025.432,3.025,3.5v8.255c0,4.106,1.037,6.7,3.025,8.212a9.5,9.5,0,0,0,6.008,1.772,8.836,8.836,0,0,0,6.4-2.507c2.031-2.075,2.636-5.057,2.636-8.9v-3.328a30.377,30.377,0,0,1,.259-5.014c.173-1.3,1.037-1.9,2.982-1.988Zm0,0" transform="translate(43.4 -184.4)"/>
  </g>
</svg>
